<?xml version="1.0" encoding="UTF-8"?>
<svg id="Capa_2" data-name="Capa 2" xmlns="http://www.w3.org/2000/svg" viewBox="0 0 980.63 956.44">
  <defs>
    <style>
      .cls-1 {
        fill: #525fe1;
      }

      .cls-1, .cls-2 {
        stroke-width: 0px;
      }

      .cls-3 {
        isolation: isolate;
      }

      .cls-2 {
        fill: #191919;
      }
    </style>
  </defs>
  <g id="Capa_1-2" data-name="Capa 1">
    <g id="Capa_1-2" data-name="Capa 1-2">
      <g id="Tech_Properties" data-name="Tech Properties">
        <g class="cls-3">
          <path class="cls-2" d="M67.92,870.41v14.86h-25.1v68.99h-17.62v-68.99H0v-14.86h67.92Z"/>
          <path class="cls-2" d="M108.7,893.52c4.32,1.94,7.91,5,10.73,9.18,2.52,3.69,4.18,7.96,4.95,12.82.44,2.86.63,6.94.53,12.33h-45.15c.24,6.21,2.43,10.58,6.51,13.11,2.48,1.55,5.44,2.33,8.93,2.33,3.69,0,6.7-.97,8.98-2.86,1.26-1.02,2.38-2.43,3.35-4.27h16.55c-.44,3.69-2.43,7.43-6.02,11.21-5.53,6.02-13.35,9.03-23.35,9.03-8.25,0-15.54-2.52-21.85-7.62-6.31-5.1-9.47-13.35-9.47-24.81,0-10.73,2.86-18.98,8.54-24.71,5.68-5.73,13.11-8.59,22.19-8.59,5.39,0,10.24.97,14.56,2.91v-.05ZM84.43,907.55c-2.28,2.38-3.74,5.58-4.32,9.61h27.92c-.29-4.32-1.75-7.57-4.32-9.81-2.57-2.23-5.78-3.35-9.61-3.35-4.18,0-7.38,1.17-9.66,3.54Z"/>
          <path class="cls-2" d="M167.54,890.8s.68,0,1.41.1v16.6c-1.02-.1-1.94-.19-2.72-.24s-1.46-.05-1.94-.05c-6.51,0-10.92,2.14-13.16,6.36-1.26,2.38-1.89,6.07-1.89,11.02v29.66h-16.31v-62h15.49v10.83c2.52-4.13,4.66-6.94,6.55-8.5,3.01-2.52,6.99-3.84,11.85-3.84h.78l-.05.05Z"/>
          <path class="cls-2" d="M212.88,890.8s.68,0,1.41.1v16.6c-1.02-.1-1.94-.19-2.72-.24s-1.46-.05-1.94-.05c-6.51,0-10.92,2.14-13.16,6.36-1.26,2.38-1.89,6.07-1.89,11.02v29.66h-16.31v-62h15.49v10.83c2.52-4.13,4.66-6.94,6.55-8.5,3.01-2.52,6.99-3.84,11.85-3.84h.78l-.05.05Z"/>
          <path class="cls-2" d="M248.32,916.58c3.01-.39,5.19-.87,6.46-1.41,2.33-.97,3.5-2.52,3.5-4.61,0-2.52-.87-4.27-2.67-5.24-1.8-.97-4.42-1.46-7.86-1.46-3.88,0-6.65.97-8.25,2.86-1.17,1.41-1.94,3.3-2.33,5.68h-15.63c.34-5.44,1.84-9.9,4.56-13.35,4.32-5.44,11.7-8.2,22.19-8.2,6.8,0,12.87,1.36,18.16,4.03s7.96,7.77,7.96,15.24v28.45c0,1.99,0,4.37.1,7.19.1,2.14.44,3.54.97,4.32s1.31,1.41,2.38,1.89v2.38h-17.62c-.49-1.26-.83-2.43-1.02-3.54s-.34-2.33-.44-3.74c-2.23,2.43-4.85,4.51-7.77,6.21-3.5,1.99-7.48,3.01-11.89,3.01-5.63,0-10.29-1.6-13.98-4.81-3.69-3.2-5.53-7.77-5.53-13.64,0-7.62,2.96-13.16,8.88-16.55,3.25-1.84,8.01-3.2,14.32-3.98l5.58-.68-.05-.05ZM258.23,924.11c-1.02.63-2.09,1.17-3.16,1.55s-2.52.78-4.37,1.12l-3.69.68c-3.45.58-5.92,1.36-7.48,2.23-2.57,1.46-3.84,3.79-3.84,6.89,0,2.77.78,4.76,2.33,6.02s3.45,1.84,5.68,1.84c3.54,0,6.8-1.02,9.81-3.06s4.51-5.78,4.66-11.21v-6.02l.05-.05Z"/>
          <path class="cls-2" d="M350.81,870.41v14.86h-25.1v68.99h-17.62v-68.99h-25.2v-14.86h67.92Z"/>
          <path class="cls-2" d="M387.8,890.8s.68,0,1.41.1v16.6c-1.02-.1-1.94-.19-2.72-.24s-1.46-.05-1.94-.05c-6.51,0-10.92,2.14-13.16,6.36-1.26,2.38-1.89,6.07-1.89,11.02v29.66h-16.31v-62h15.49v10.83c2.52-4.13,4.66-6.94,6.55-8.5,3.01-2.52,6.99-3.84,11.85-3.84h.78l-.05.05Z"/>
          <path class="cls-2" d="M439.12,893.52c4.32,1.94,7.91,5,10.73,9.18,2.52,3.69,4.18,7.96,4.95,12.82.44,2.86.63,6.94.53,12.33h-45.15c.24,6.21,2.43,10.58,6.51,13.11,2.48,1.55,5.44,2.33,8.93,2.33,3.69,0,6.7-.97,8.98-2.86,1.26-1.02,2.38-2.43,3.35-4.27h16.55c-.44,3.69-2.43,7.43-6.02,11.21-5.53,6.02-13.35,9.03-23.35,9.03-8.25,0-15.54-2.52-21.85-7.62s-9.47-13.35-9.47-24.81c0-10.73,2.86-18.98,8.54-24.71,5.68-5.73,13.11-8.59,22.19-8.59,5.39,0,10.24.97,14.56,2.91v-.05ZM414.85,907.55c-2.28,2.38-3.74,5.58-4.32,9.61h27.92c-.29-4.32-1.75-7.57-4.32-9.81s-5.78-3.35-9.61-3.35c-4.18,0-7.38,1.17-9.66,3.54Z"/>
          <path class="cls-2" d="M463.35,870.71h15.92v45.25l20.44-23.4h20.15l-22.24,23.11,23.11,38.64h-19.71l-15-26.51-6.7,6.99v19.52h-15.92v-83.55l-.05-.05Z"/>
          <path class="cls-2" d="M528.16,870.71h15.92v45.25l20.44-23.4h20.15l-22.24,23.11,23.11,38.64h-19.71l-15-26.51-6.7,6.99v19.52h-15.92v-83.55l-.05-.05Z"/>
          <path class="cls-2" d="M633.51,893.52c4.32,1.94,7.91,5,10.73,9.18,2.52,3.69,4.18,7.96,4.95,12.82.44,2.86.63,6.94.53,12.33h-45.15c.24,6.21,2.43,10.58,6.51,13.11,2.48,1.55,5.44,2.33,8.93,2.33,3.69,0,6.7-.97,8.98-2.86,1.26-1.02,2.38-2.43,3.35-4.27h16.55c-.44,3.69-2.43,7.43-6.02,11.21-5.53,6.02-13.35,9.03-23.35,9.03-8.25,0-15.54-2.52-21.85-7.62s-9.47-13.35-9.47-24.81c0-10.73,2.86-18.98,8.54-24.71,5.68-5.73,13.11-8.59,22.19-8.59,5.39,0,10.24.97,14.56,2.91v-.05ZM609.28,907.55c-2.28,2.38-3.74,5.58-4.32,9.61h27.92c-.29-4.32-1.75-7.57-4.32-9.81s-5.78-3.35-9.61-3.35c-4.18,0-7.38,1.17-9.66,3.54Z"/>
          <path class="cls-2" d="M692.35,890.8s.68,0,1.41.1v16.6c-1.02-.1-1.94-.19-2.72-.24s-1.46-.05-1.94-.05c-6.51,0-10.92,2.14-13.16,6.36-1.26,2.38-1.89,6.07-1.89,11.02v29.66h-16.31v-62h15.49v10.83c2.52-4.13,4.66-6.94,6.55-8.5,3.01-2.52,6.99-3.84,11.85-3.84h.78l-.05.05Z"/>
          <path class="cls-2" d="M765.51,870.41v14.86h-25.1v68.99h-17.62v-68.99h-25.2v-14.86h67.92Z"/>
          <path class="cls-2" d="M790.42,916.58c3.01-.39,5.19-.87,6.46-1.41,2.33-.97,3.5-2.52,3.5-4.61,0-2.52-.87-4.27-2.67-5.24-1.8-.97-4.42-1.46-7.86-1.46-3.88,0-6.65.97-8.25,2.86-1.17,1.41-1.94,3.3-2.33,5.68h-15.63c.34-5.44,1.84-9.9,4.56-13.35,4.32-5.44,11.7-8.2,22.19-8.2,6.8,0,12.87,1.36,18.16,4.03,5.29,2.67,7.96,7.77,7.96,15.24v28.45c0,1.99,0,4.37.1,7.19.1,2.14.44,3.54.97,4.32s1.31,1.41,2.38,1.89v2.38h-17.62c-.49-1.26-.83-2.43-1.02-3.54s-.34-2.33-.44-3.74c-2.23,2.43-4.85,4.51-7.77,6.21-3.5,1.99-7.48,3.01-11.89,3.01-5.63,0-10.29-1.6-13.98-4.81-3.69-3.2-5.53-7.77-5.53-13.64,0-7.62,2.96-13.16,8.88-16.55,3.25-1.84,8.01-3.2,14.32-3.98l5.58-.68-.05-.05ZM800.32,924.11c-1.02.63-2.09,1.17-3.16,1.55s-2.52.78-4.37,1.12l-3.69.68c-3.45.58-5.92,1.36-7.48,2.23-2.57,1.46-3.84,3.79-3.84,6.89,0,2.77.78,4.76,2.33,6.02s3.45,1.84,5.68,1.84c3.54,0,6.8-1.02,9.81-3.06s4.51-5.78,4.66-11.21v-6.02l.05-.05Z"/>
          <path class="cls-2" d="M847.17,954.31h-16.22v-83.84h16.22v83.84Z"/>
          <path class="cls-2" d="M903.44,893.52c4.32,1.94,7.91,5,10.73,9.18,2.52,3.69,4.18,7.96,4.95,12.82.44,2.86.63,6.94.53,12.33h-45.15c.24,6.21,2.43,10.58,6.51,13.11,2.48,1.55,5.44,2.33,8.93,2.33,3.69,0,6.7-.97,8.98-2.86,1.26-1.02,2.38-2.43,3.35-4.27h16.55c-.44,3.69-2.43,7.43-6.02,11.21-5.53,6.02-13.35,9.03-23.35,9.03-8.25,0-15.54-2.52-21.85-7.62-6.31-5.1-9.47-13.35-9.47-24.81,0-10.73,2.86-18.98,8.54-24.71,5.68-5.73,13.11-8.59,22.19-8.59,5.39,0,10.24.97,14.56,2.91v-.05ZM879.16,907.55c-2.28,2.38-3.74,5.58-4.32,9.61h27.92c-.29-4.32-1.75-7.57-4.32-9.81-2.57-2.23-5.78-3.35-9.61-3.35-4.18,0-7.38,1.17-9.66,3.54Z"/>
          <path class="cls-2" d="M940.38,934.5c.34,2.86,1.07,4.95,2.23,6.17,2.04,2.18,5.78,3.25,11.21,3.25,3.2,0,5.73-.49,7.62-1.41,1.89-.97,2.82-2.38,2.82-4.27s-.78-3.2-2.28-4.18-7.19-2.57-16.94-4.9c-7.04-1.75-11.99-3.93-14.9-6.55-2.86-2.57-4.32-6.31-4.32-11.17,0-5.73,2.23-10.63,6.75-14.76s10.83-6.17,19.03-6.17,14.08,1.55,18.93,4.66,7.67,8.45,8.4,16.02h-16.22c-.24-2.09-.83-3.74-1.75-4.95-1.8-2.18-4.85-3.3-9.13-3.3-3.54,0-6.07.53-7.57,1.65-1.5,1.12-2.23,2.38-2.23,3.88,0,1.84.78,3.2,2.38,4.03,1.6.87,7.23,2.38,16.94,4.51,6.46,1.5,11.31,3.84,14.52,6.89,3.2,3.11,4.76,6.99,4.76,11.65,0,6.17-2.28,11.17-6.89,15.05-4.61,3.88-11.65,5.83-21.22,5.83s-16.99-2.04-21.65-6.17c-4.66-4.13-6.99-9.37-6.99-15.73h16.46l.05-.05Z"/>
        </g>
        <g>
          <path class="cls-1" d="M14.63,403.94l401.72,401.72,77.08-77.08,74.86,74.86,401.72-401.72L568.28,0l-77.08,77.08L416.34,2.22,17.59,400.98l-2.96,2.96ZM370.39,543.28l141.56-141.56-141.56-141.56,42.99-42.99,184.55,184.55,2.22,2.22-184.55,184.55s-45.21-45.21-45.21-45.21ZM385.21,620.36l-45.95,45.95-45.95-45.95,45.95-45.95,45.95,45.95ZM339.26,511.41l-109.69-109.69,109.69-109.69,109.69,109.69-109.69,109.69ZM311.1,200.86l-15.56-15.56,42.99-42.99,42.99,42.99-42.99,42.99-27.42-27.42h0ZM459.33,108.95l-45.21,45.21-42.99-42.99,45.21-45.21,42.99,42.99ZM493.43,665.57l-45.21-45.21,216.42-216.42-218.65-218.65,45.21-45.21,261.63,261.63,2.22,2.22s-261.63,261.63-261.63,261.63ZM415.6,742.66l-45.21-45.21,45.95-45.95,45.21,45.21-45.95,45.95ZM77.63,403.94l2.22-2.22,184.55-184.55h0l14.82,14.82,28.16,28.16-141.56,141.56,141.56,141.56-45.95,45.95s-183.81-185.29-183.81-185.29Z"/>
          <polygon class="cls-1" points="339.26 574.41 307.39 543.28 262.18 588.49 293.31 620.36 339.26 574.41"/>
          <polygon class="cls-1" points="370.39 543.28 339.26 511.41 448.95 401.72 448.95 464.72 370.39 543.28"/>
          <polygon class="cls-1" points="416.34 588.49 385.21 620.36 339.26 574.41 370.39 543.28 416.34 588.49"/>
          <polygon class="cls-1" points="447.47 620.36 416.34 651.49 461.55 696.7 493.43 665.57 447.47 620.36"/>
          <polygon class="cls-1" points="370.39 260.15 339.26 229.02 382.25 185.29 414.12 217.16 370.39 260.15"/>
          <polygon class="cls-1" points="339.26 292.02 307.39 260.15 166.57 401.72 229.57 401.72 339.26 292.02"/>
          <polygon class="cls-1" points="445.25 185.29 414.12 217.16 491.94 294.99 525.3 265.34 445.25 185.29"/>
          <polygon class="cls-1" points="414.12 154.16 382.25 185.29 339.26 142.31 370.39 111.18 414.12 154.16"/>
        </g>
      </g>
    </g>
  </g>
</svg>