<?xml version="1.0" encoding="UTF-8"?>
<svg id="Capa_2" data-name="Capa 2" xmlns="http://www.w3.org/2000/svg" viewBox="0 0 4513.72 905.74">
  <defs>
    <style>
      .cls-1 {
        fill: #000;
      }

      .cls-1, .cls-2, .cls-3 {
        stroke-width: 0px;
      }

      .cls-2 {
        fill: #217bf4;
      }

      .cls-4 {
        isolation: isolate;
      }

      .cls-3 {
        fill: #002d61;
      }
    </style>
  </defs>
  <g id="Capa_1-2" data-name="Capa 1">
    <g class="cls-4">
      <path class="cls-1" d="M1291.71,619.78v15.47h-43.77v114.42h-17.86v-114.42h-43.77v-15.47h105.4Z"/>
      <path class="cls-1" d="M1344.59,657.58c6.31,3.15,11.11,7.24,14.41,12.25,3.18,4.78,5.31,10.35,6.37,16.71.94,4.36,1.42,11.32,1.42,20.87h-69.41c.29,9.61,2.56,17.32,6.81,23.12,4.25,5.81,10.82,8.71,19.72,8.71,8.31,0,14.94-2.74,19.9-8.22,2.83-3.18,4.83-6.87,6.01-11.05h15.65c-.41,3.48-1.78,7.35-4.11,11.63-2.33,4.27-4.94,7.77-7.83,10.48-4.83,4.72-10.82,7.9-17.95,9.55-3.83.94-8.17,1.41-13,1.41-11.79,0-21.78-4.29-29.98-12.87-8.2-8.58-12.29-20.59-12.29-36.03s4.13-27.56,12.38-37.05c8.25-9.49,19.04-14.24,32.36-14.24,6.72,0,13.23,1.58,19.54,4.73ZM1350.42,694.77c-.65-6.9-2.15-12.41-4.51-16.54-4.36-7.66-11.64-11.5-21.84-11.5-7.31,0-13.44,2.64-18.39,7.91-4.95,5.28-7.58,11.98-7.87,20.12h52.61Z"/>
      <path class="cls-1" d="M1448.89,660.01c6.69,5.19,10.71,14.12,12.07,26.79h-15.47c-.94-5.84-3.09-10.68-6.46-14.55-3.36-3.86-8.75-5.79-16.18-5.79-10.14,0-17.39,4.95-21.75,14.86-2.83,6.43-4.24,14.36-4.24,23.79s2,17.48,6.01,23.96c4.01,6.49,10.32,9.73,18.92,9.73,6.6,0,11.83-2.02,15.7-6.06,3.86-4.04,6.53-9.56,8-16.58h15.47c-1.77,12.56-6.19,21.74-13.26,27.54-7.07,5.81-16.12,8.71-27.15,8.71-12.38,0-22.25-4.52-29.62-13.57-7.37-9.05-11.05-20.35-11.05-33.91,0-16.62,4.04-29.56,12.11-38.82,8.08-9.25,18.36-13.88,30.86-13.88,10.67,0,19.35,2.59,26.04,7.78Z"/>
      <path class="cls-1" d="M1476.87,619.34h15.92v48.46c3.77-4.78,7.16-8.14,10.17-10.08,5.13-3.36,11.52-5.04,19.19-5.04,13.73,0,23.05,4.81,27.94,14.41,2.65,5.25,3.98,12.53,3.98,21.84v60.75h-16.36v-59.69c0-6.96-.88-12.05-2.65-15.3-2.89-5.19-8.31-7.78-16.27-7.78-6.6,0-12.59,2.27-17.95,6.81-5.37,4.54-8.05,13.12-8.05,25.73v50.23h-15.92v-130.34Z"/>
    </g>
    <g class="cls-4">
      <path class="cls-1" d="M1181.84,142.58h90.78v356.36h216.94v78.11h-307.72V142.58Z"/>
      <path class="cls-1" d="M1753.15,262.27c22.41,10.04,40.92,25.88,55.52,47.53,13.16,19.09,21.69,41.23,25.6,66.42,2.26,14.76,3.18,36.02,2.77,63.76h-234c1.3,32.23,12.5,54.82,33.6,67.79,12.83,8.06,28.27,12.08,46.32,12.08,19.14,0,34.68-4.91,46.64-14.74,6.52-5.31,12.29-12.67,17.29-22.11h85.76c-2.26,19.06-12.64,38.42-31.14,58.07-28.78,31.24-69.07,46.87-120.87,46.87-42.76,0-80.48-13.18-113.17-39.53-32.69-26.35-49.03-69.23-49.03-128.63,0-55.65,14.75-98.33,44.26-128.03,29.5-29.7,67.8-44.55,114.89-44.55,27.96,0,53.15,5.02,75.56,15.06ZM1627.48,334.84c-11.87,12.24-19.33,28.81-22.38,49.73h144.72c-1.53-22.3-8.99-39.22-22.38-50.77s-30-17.32-49.82-17.32c-21.56,0-38.28,6.12-50.14,18.36Z"/>
      <path class="cls-1" d="M2006.77,381.62c15.64-1.96,26.82-4.42,33.55-7.37,12.08-5.11,18.11-13.07,18.11-23.87,0-13.16-4.63-22.25-13.89-27.26-9.26-5.01-22.86-7.52-40.78-7.52-20.12,0-34.36,4.91-42.73,14.74-5.98,7.27-9.96,17.1-11.95,29.48h-81.06c1.77-28.1,9.67-51.19,23.68-69.27,22.3-28.3,60.59-42.44,114.86-42.44,35.32,0,66.7,6.98,94.14,20.93,27.43,13.95,41.15,40.28,41.15,78.99v147.38c0,10.22.19,22.6.59,37.14.59,11.01,2.26,18.47,5.01,22.4,2.75,3.93,6.88,7.18,12.38,9.73v12.38h-91.37c-2.56-6.48-4.32-12.57-5.3-18.27-.99-5.7-1.77-12.18-2.36-19.45-11.66,12.58-25.1,23.29-40.32,32.13-18.18,10.41-38.74,15.62-61.67,15.62-29.25,0-53.41-8.3-72.49-24.91-19.08-16.6-28.61-40.13-28.61-70.59,0-39.5,15.34-68.09,46.02-85.77,16.83-9.63,41.57-16.51,74.24-20.63l28.8-3.54ZM2058.14,420.82c-5.38,3.34-10.81,6.04-16.29,8.11-5.48,2.06-13,3.98-22.56,5.75l-19.12,3.54c-17.92,3.15-30.8,6.98-38.61,11.5-13.23,7.66-19.85,19.55-19.85,35.66,0,14.35,4.04,24.71,12.12,31.1,8.08,6.39,17.91,9.58,29.48,9.58,18.36,0,35.26-5.31,50.73-15.92,15.47-10.61,23.49-29.96,24.09-58.07v-31.24Z"/>
      <path class="cls-1" d="M2385.61,260.92c15.13,8.55,27.41,20.39,36.84,35.52v-153.27h85.18v433.88h-81.65v-44.51c-11.99,19.06-25.64,32.92-40.97,41.56s-34.39,12.97-57.18,12.97c-37.53,0-69.12-15.18-94.76-45.54-25.64-30.36-38.46-69.31-38.46-116.87,0-54.82,12.62-97.95,37.88-129.4,25.25-31.44,59-47.16,101.25-47.16,19.45,0,36.74,4.27,51.88,12.82ZM2406.24,489.79c12.38-17.69,18.57-40.57,18.57-68.68,0-39.3-9.92-67.4-29.77-84.3-12.19-10.21-26.33-15.33-42.44-15.33-24.57,0-42.59,9.28-54.09,27.85-11.5,18.57-17.24,41.61-17.24,69.12,0,29.67,5.84,53.4,17.54,71.18,11.69,17.79,29.42,26.68,53.2,26.68s41.85-8.84,54.23-26.53Z"/>
      <path class="cls-1" d="M2590.17,577.04V142.58h90.19v165.65h168.89v-165.65h90.19v434.46h-90.19v-193.95h-168.89v193.95h-90.19Z"/>
      <path class="cls-1" d="M3147.17,381.62c15.64-1.96,26.82-4.42,33.55-7.37,12.08-5.11,18.11-13.07,18.11-23.87,0-13.16-4.63-22.25-13.89-27.26-9.26-5.01-22.86-7.52-40.78-7.52-20.12,0-34.36,4.91-42.73,14.74-5.98,7.27-9.96,17.1-11.95,29.48h-81.06c1.77-28.1,9.67-51.19,23.68-69.27,22.3-28.3,60.59-42.44,114.86-42.44,35.32,0,66.7,6.98,94.14,20.93,27.43,13.95,41.15,40.28,41.15,78.99v147.38c0,10.22.19,22.6.59,37.14.59,11.01,2.26,18.47,5.01,22.4,2.75,3.93,6.88,7.18,12.38,9.73v12.38h-91.37c-2.56-6.48-4.32-12.57-5.3-18.27-.99-5.7-1.77-12.18-2.36-19.45-11.66,12.58-25.1,23.29-40.32,32.13-18.18,10.41-38.74,15.62-61.67,15.62-29.25,0-53.41-8.3-72.49-24.91-19.08-16.6-28.61-40.13-28.61-70.59,0-39.5,15.34-68.09,46.02-85.77,16.83-9.63,41.57-16.51,74.24-20.63l28.8-3.54ZM3198.53,420.82c-5.38,3.34-10.81,6.04-16.29,8.11-5.48,2.06-13,3.98-22.56,5.75l-19.12,3.54c-17.92,3.15-30.8,6.98-38.61,11.5-13.23,7.66-19.85,19.55-19.85,35.66,0,14.35,4.04,24.71,12.12,31.1,8.08,6.39,17.91,9.58,29.48,9.58,18.36,0,35.26-5.31,50.73-15.92,15.47-10.61,23.49-29.96,24.09-58.07v-31.24Z"/>
      <path class="cls-1" d="M3534.11,248.24c1.08.1,3.49.25,7.22.44v86.07c-5.31-.59-10.02-.98-14.15-1.18-4.13-.19-7.47-.29-10.02-.29-33.8,0-56.5,11.01-68.09,33.01-6.48,12.38-9.73,31.44-9.73,57.18v153.57h-84.59V255.76h80.17v56c12.97-21.42,24.27-36.06,33.9-43.92,15.72-13.16,36.15-19.75,61.31-19.75,1.57,0,2.9.05,3.98.15Z"/>
      <path class="cls-1" d="M3864.88,294.37c24.03,30.46,36.05,69.76,36.05,117.9s-11.85,91.28-35.55,124.09c-23.7,32.82-56.79,49.22-99.25,49.22-26.67,0-48.09-5.31-64.29-15.92-9.68-6.29-20.15-17.29-31.4-33.01v40.38h-82.83V143.17h84v154.45c10.68-14.93,22.44-26.33,35.3-34.19,15.23-9.82,34.61-14.74,58.14-14.74,42.52,0,75.79,15.23,99.82,45.69ZM3794.67,490.09c12.08-17.49,18.13-40.48,18.13-68.97,0-22.79-2.98-41.66-8.92-56.59-11.29-28.3-32.1-42.44-62.41-42.44s-51.81,13.85-63.3,41.56c-5.95,14.74-8.92,33.8-8.92,57.18,0,27.51,6.14,50.31,18.43,68.38,12.28,18.08,31,27.12,56.17,27.12,21.79,0,38.73-8.74,50.82-26.23Z"/>
      <path class="cls-1" d="M4227.22,537.74c-27.12,33.47-68.29,50.21-123.5,50.21s-96.38-16.74-123.5-50.21c-27.12-33.47-40.68-73.77-40.68-120.89s13.56-86.48,40.68-120.45,68.28-50.95,123.5-50.95,96.38,16.99,123.5,50.95,40.68,74.12,40.68,120.45-13.56,87.42-40.68,120.89ZM4160.02,491.31c13.16-17.46,19.75-42.28,19.75-74.47s-6.59-56.95-19.75-74.31c-13.17-17.36-32.03-26.05-56.59-26.05s-43.48,8.69-56.74,26.05-19.9,42.14-19.9,74.31,6.63,57,19.9,74.47,32.17,26.19,56.74,26.19,43.42-8.73,56.59-26.19Z"/>
      <path class="cls-1" d="M4506.5,248.24c1.08.1,3.49.25,7.22.44v86.07c-5.31-.59-10.02-.98-14.15-1.18-4.13-.19-7.47-.29-10.02-.29-33.8,0-56.5,11.01-68.09,33.01-6.48,12.38-9.73,31.44-9.73,57.18v153.57h-84.59V255.76h80.17v56c12.97-21.42,24.27-36.06,33.9-43.92,15.72-13.16,36.15-19.75,61.31-19.75,1.57,0,2.9.05,3.98.15Z"/>
    </g>
    <g>
      <rect class="cls-3" x="455.51" y="-89.96" width="96.58" height="869.25" transform="translate(-11.48 671.91) rotate(-66.8)"/>
      <rect class="cls-3" x="361.46" y="145.23" width="96.59" height="850.42" transform="translate(-277.88 713.46) rotate(-66.06)"/>
      <rect class="cls-3" x="292.47" y="435.21" width="96.59" height="612.72" transform="translate(-475 765.43) rotate(-67)"/>
      <rect class="cls-3" x="528.96" y="-151.16" width="96.59" height="618.01" transform="translate(221.67 639.2) rotate(-68.84)"/>
      <polygon class="cls-2" points="870.01 319.18 83.76 218.07 95.83 122.24 882.09 223.35 870.01 319.18"/>
      <polygon class="cls-2" points="909.25 568.19 0 442.18 12.83 346.35 922.83 472.36 909.25 568.19"/>
      <polygon class="cls-2" points="802.1 794.56 39.99 665.53 55.84 570.45 818.7 699.48 802.1 794.56"/>
      <polygon class="cls-2" points="603.65 905.48 336.53 899.44 641.38 816.44 603.65 905.48"/>
      <polygon class="cls-2" points="271.64 90.55 306.35 0 585.54 6.04 271.64 90.55"/>
    </g>
  </g>
</svg>