<?xml version="1.0" encoding="UTF-8"?>
<svg id="Capa_2" data-name="Capa 2" xmlns="http://www.w3.org/2000/svg" viewBox="0 0 711.31 910.87">
  <defs>
    <style>
      .cls-1 {
        fill: #000;
      }

      .cls-1, .cls-2, .cls-3 {
        stroke-width: 0px;
      }

      .cls-2 {
        fill: #217bf4;
      }

      .cls-4 {
        isolation: isolate;
      }

      .cls-3 {
        fill: #002d61;
      }
    </style>
  </defs>
  <g id="Capa_1-2" data-name="Capa 1">
    <g class="cls-4">
      <path class="cls-1" d="M0,721.16h19.38v76.08h46.31v16.68H0v-92.75Z"/>
      <path class="cls-1" d="M121.97,746.71c4.78,2.14,8.74,5.53,11.85,10.15,2.81,4.08,4.63,8.8,5.46,14.18.48,3.15.68,7.69.59,13.61h-49.96c.28,6.88,2.67,11.7,7.17,14.47,2.74,1.72,6.04,2.58,9.89,2.58,4.09,0,7.4-1.05,9.96-3.15,1.39-1.13,2.62-2.71,3.69-4.72h18.31c-.48,4.07-2.7,8.2-6.65,12.4-6.14,6.67-14.75,10.01-25.8,10.01-9.13,0-17.18-2.81-24.16-8.44-6.98-5.63-10.47-14.78-10.47-27.46,0-11.88,3.15-20.99,9.45-27.33,6.3-6.34,14.47-9.51,24.53-9.51,5.97,0,11.35,1.07,16.13,3.21ZM95.14,762.2c-2.53,2.61-4.13,6.15-4.78,10.62h30.9c-.33-4.76-1.92-8.37-4.78-10.84-2.86-2.46-6.4-3.7-10.64-3.7-4.6,0-8.17,1.31-10.71,3.92Z"/>
      <path class="cls-1" d="M176.11,772.19c3.34-.42,5.73-.94,7.16-1.57,2.58-1.09,3.87-2.79,3.87-5.1,0-2.81-.99-4.75-2.97-5.82-1.98-1.07-4.88-1.6-8.71-1.6-4.29,0-7.34,1.05-9.12,3.15-1.28,1.55-2.13,3.65-2.55,6.29h-17.3c.38-6,2.06-10.93,5.06-14.79,4.76-6.04,12.93-9.06,24.52-9.06,7.54,0,14.24,1.49,20.1,4.47,5.86,2.98,8.78,8.6,8.78,16.86v31.46c0,2.18.04,4.82.13,7.93.13,2.35.48,3.94,1.07,4.78.59.84,1.47,1.53,2.64,2.08v2.64h-19.51c-.55-1.38-.92-2.68-1.13-3.9-.21-1.22-.38-2.6-.5-4.15-2.49,2.69-5.36,4.97-8.61,6.86-3.88,2.22-8.27,3.34-13.17,3.34-6.25,0-11.4-1.77-15.47-5.32-4.07-3.54-6.11-8.57-6.11-15.07,0-8.43,3.28-14.54,9.83-18.31,3.59-2.05,8.88-3.52,15.85-4.4l6.15-.76ZM187.08,780.56c-1.15.71-2.31,1.29-3.48,1.73-1.17.44-2.77.85-4.82,1.23l-4.08.76c-3.83.67-6.57,1.49-8.24,2.45-2.82,1.64-4.24,4.17-4.24,7.61,0,3.06.86,5.28,2.59,6.64,1.72,1.36,3.82,2.05,6.29,2.05,3.92,0,7.53-1.13,10.83-3.4,3.3-2.27,5.02-6.4,5.14-12.4v-6.67Z"/>
      <path class="cls-1" d="M256.99,746.42c3.23,1.82,5.85,4.35,7.87,7.58v-32.72h18.19v92.63h-17.43v-9.5c-2.56,4.07-5.47,7.03-8.75,8.87s-7.34,2.77-12.21,2.77c-8.01,0-14.76-3.24-20.23-9.72-5.47-6.48-8.21-14.8-8.21-24.95,0-11.7,2.69-20.91,8.09-27.62,5.39-6.71,12.59-10.07,21.61-10.07,4.15,0,7.84.91,11.08,2.74ZM261.39,795.29c2.64-3.78,3.96-8.66,3.96-14.66,0-8.39-2.12-14.39-6.36-18-2.6-2.18-5.62-3.27-9.06-3.27-5.24,0-9.09,1.98-11.55,5.95-2.45,3.96-3.68,8.88-3.68,14.76,0,6.33,1.25,11.4,3.74,15.2,2.5,3.8,6.28,5.69,11.36,5.69s8.94-1.89,11.58-5.66Z"/>
      <path class="cls-1" d="M300.66,813.91v-92.75h19.26v35.36h36.06v-35.36h19.26v92.75h-19.26v-41.41h-36.06v41.41h-19.26Z"/>
      <path class="cls-1" d="M419.57,772.19c3.34-.42,5.73-.94,7.16-1.57,2.58-1.09,3.87-2.79,3.87-5.1,0-2.81-.99-4.75-2.97-5.82-1.98-1.07-4.88-1.6-8.71-1.6-4.29,0-7.34,1.05-9.12,3.15-1.28,1.55-2.13,3.65-2.55,6.29h-17.3c.38-6,2.06-10.93,5.06-14.79,4.76-6.04,12.93-9.06,24.52-9.06,7.54,0,14.24,1.49,20.1,4.47,5.86,2.98,8.78,8.6,8.78,16.86v31.46c0,2.18.04,4.82.13,7.93.13,2.35.48,3.94,1.07,4.78.59.84,1.47,1.53,2.64,2.08v2.64h-19.51c-.55-1.38-.92-2.68-1.13-3.9-.21-1.22-.38-2.6-.5-4.15-2.49,2.69-5.36,4.97-8.61,6.86-3.88,2.22-8.27,3.34-13.17,3.34-6.25,0-11.4-1.77-15.47-5.32-4.07-3.54-6.11-8.57-6.11-15.07,0-8.43,3.28-14.54,9.83-18.31,3.59-2.05,8.88-3.52,15.85-4.4l6.15-.76ZM430.54,780.56c-1.15.71-2.31,1.29-3.48,1.73-1.17.44-2.77.85-4.82,1.23l-4.08.76c-3.83.67-6.57,1.49-8.24,2.45-2.82,1.64-4.24,4.17-4.24,7.61,0,3.06.86,5.28,2.59,6.64,1.72,1.36,3.82,2.05,6.29,2.05,3.92,0,7.53-1.13,10.83-3.4,3.3-2.27,5.02-6.4,5.14-12.4v-6.67Z"/>
      <path class="cls-1" d="M502.18,743.72c.23.02.74.05,1.54.09v18.37c-1.13-.13-2.14-.21-3.02-.25-.88-.04-1.59-.06-2.14-.06-7.22,0-12.06,2.35-14.54,7.05-1.38,2.64-2.08,6.71-2.08,12.21v32.78h-18.06v-68.59h17.12v11.96c2.77-4.57,5.18-7.7,7.24-9.38,3.36-2.81,7.72-4.22,13.09-4.22.33,0,.62.01.85.03Z"/>
      <path class="cls-1" d="M572.79,753.57c5.13,6.5,7.7,14.89,7.7,25.17s-2.53,19.49-7.59,26.49c-5.06,7.01-12.12,10.51-21.19,10.51-5.69,0-10.27-1.13-13.72-3.4-2.07-1.34-4.3-3.69-6.7-7.05v8.62h-17.68v-92.63h17.93v32.97c2.28-3.19,4.79-5.62,7.54-7.3,3.25-2.1,7.39-3.15,12.41-3.15,9.08,0,16.18,3.25,21.31,9.75ZM557.8,795.35c2.58-3.73,3.87-8.64,3.87-14.72,0-4.87-.64-8.89-1.9-12.08-2.41-6.04-6.85-9.06-13.32-9.06s-11.06,2.96-13.51,8.87c-1.27,3.15-1.9,7.22-1.9,12.21,0,5.87,1.31,10.74,3.93,14.6,2.62,3.86,6.62,5.79,11.99,5.79,4.65,0,8.27-1.87,10.85-5.6Z"/>
      <path class="cls-1" d="M650.15,805.52c-5.79,7.15-14.58,10.72-26.37,10.72s-20.58-3.57-26.37-10.72-8.68-15.75-8.68-25.81,2.89-18.46,8.68-25.71,14.58-10.88,26.37-10.88,20.58,3.63,26.37,10.88,8.68,15.82,8.68,25.71-2.89,18.66-8.68,25.81ZM635.8,795.61c2.81-3.73,4.22-9.03,4.22-15.9s-1.41-12.16-4.22-15.86c-2.81-3.71-6.84-5.56-12.08-5.56s-9.28,1.85-12.11,5.56c-2.83,3.71-4.25,9-4.25,15.86s1.42,12.17,4.25,15.9c2.83,3.73,6.87,5.59,12.11,5.59s9.27-1.86,12.08-5.59Z"/>
      <path class="cls-1" d="M709.77,743.72c.23.02.74.05,1.54.09v18.37c-1.13-.13-2.14-.21-3.02-.25-.88-.04-1.59-.06-2.14-.06-7.22,0-12.06,2.35-14.54,7.05-1.38,2.64-2.08,6.71-2.08,12.21v32.78h-18.06v-68.59h17.12v11.96c2.77-4.57,5.18-7.7,7.24-9.38,3.36-2.81,7.72-4.22,13.09-4.22.33,0,.62.01.85.03Z"/>
    </g>
    <g class="cls-4">
      <path class="cls-1" d="M312.46,847.65v7.34h-20.77v54.28h-8.47v-54.28h-20.77v-7.34h50Z"/>
      <path class="cls-1" d="M337.55,865.59c2.99,1.5,5.27,3.43,6.84,5.81,1.51,2.27,2.52,4.91,3.02,7.93.45,2.07.67,5.37.67,9.9h-32.93c.14,4.56,1.22,8.22,3.23,10.97,2.01,2.76,5.13,4.13,9.35,4.13,3.94,0,7.09-1.3,9.44-3.9,1.34-1.51,2.29-3.26,2.85-5.24h7.43c-.2,1.65-.85,3.49-1.95,5.52-1.1,2.03-2.34,3.69-3.71,4.97-2.29,2.24-5.13,3.75-8.52,4.53-1.82.45-3.87.67-6.17.67-5.59,0-10.33-2.03-14.22-6.1-3.89-4.07-5.83-9.77-5.83-17.09s1.96-13.07,5.87-17.58c3.92-4.5,9.03-6.75,15.35-6.75,3.19,0,6.28.75,9.27,2.24ZM340.32,883.23c-.31-3.27-1.02-5.89-2.14-7.84-2.07-3.64-5.52-5.45-10.36-5.45-3.47,0-6.38,1.25-8.73,3.75-2.35,2.5-3.59,5.68-3.73,9.54h24.96Z"/>
      <path class="cls-1" d="M387.03,866.74c3.17,2.46,5.08,6.7,5.73,12.71h-7.34c-.45-2.77-1.47-5.07-3.06-6.9-1.59-1.83-4.15-2.75-7.68-2.75-4.81,0-8.25,2.35-10.32,7.05-1.34,3.05-2.01,6.81-2.01,11.28s.95,8.29,2.85,11.37c1.9,3.08,4.89,4.61,8.98,4.61,3.13,0,5.61-.96,7.45-2.87,1.83-1.92,3.1-4.54,3.8-7.87h7.34c-.84,5.96-2.94,10.31-6.29,13.07-3.36,2.76-7.65,4.13-12.88,4.13-5.87,0-10.56-2.15-14.05-6.44-3.5-4.29-5.24-9.66-5.24-16.09,0-7.89,1.92-14.03,5.75-18.42,3.83-4.39,8.71-6.59,14.64-6.59,5.06,0,9.18,1.23,12.35,3.69Z"/>
      <path class="cls-1" d="M400.31,847.44h7.55v22.99c1.79-2.27,3.4-3.86,4.82-4.78,2.43-1.59,5.47-2.39,9.1-2.39,6.52,0,10.93,2.28,13.26,6.84,1.26,2.49,1.89,5.94,1.89,10.36v28.82h-7.76v-28.32c0-3.3-.42-5.72-1.26-7.26-1.37-2.46-3.94-3.69-7.72-3.69-3.13,0-5.97,1.08-8.52,3.23-2.54,2.15-3.82,6.22-3.82,12.21v23.83h-7.55v-61.83Z"/>
    </g>
    <g>
      <rect class="cls-3" x="363.01" y="-64.62" width="68.73" height="618.58" transform="translate(15.93 513.5) rotate(-66.8)"/>
      <rect class="cls-3" x="295.85" y="103.28" width="68.73" height="605.18" transform="translate(-174.73 542.98) rotate(-66.06)"/>
      <rect class="cls-3" x="247.26" y="309.84" width="68.73" height="436.02" transform="translate(-314.3 580.8) rotate(-67)"/>
      <rect class="cls-3" x="415.07" y="-107.62" width="68.73" height="439.79" transform="translate(182.49 490.87) rotate(-68.84)"/>
      <polygon class="cls-2" points="658.21 226.6 98.7 154.65 107.29 86.45 666.81 158.4 658.21 226.6"/>
      <polygon class="cls-2" points="686.14 403.8 39.1 314.12 48.22 245.93 695.8 335.6 686.14 403.8"/>
      <polygon class="cls-2" points="609.89 565.42 67.55 473.6 78.83 405.41 621.16 497.23 609.89 565.42"/>
      <polygon class="cls-2" points="468.67 643.82 278.05 639.53 495.52 580.46 468.67 643.82"/>
      <polygon class="cls-2" points="231.87 63.9 256.57 0 455.24 3.76 231.87 63.9"/>
    </g>
  </g>
</svg>